<?xml version="1.0" encoding="UTF-8"?>
<svg xmlns="http://www.w3.org/2000/svg" viewBox="0 0 1065.97 1027.62">
  <defs>
    <style>
      .cls-1, .cls-2 {
        fill: #fff;
      }

      .cls-3 {
        fill: #121212;
      }

      .cls-4 {
        fill: #123610;
      }

      .cls-2 {
        stroke: #fff;
        stroke-miterlimit: 10;
      }
    </style>
  </defs>
  <g id="Layer_8" data-name="Layer 8">
    <path class="cls-3" d="M83.42,552.87c-11.03,34.86-36.14,59.1-51.67,92.76-16.92,36.67-20.32,86.69,11.05,111.83,16.13,12.93,37.76,16.07,58.31,17.19,62.88,3.44,126.5-7.86,184.46-32.74,14.25-6.12,29.69-13.2,44.61-9.04,8.38,2.33,15.58,8.04,24.03,10.12,20.26,4.98,38.94-11.68,59.07-17.17,20.57-5.62,42.24.69,63.52,1.88,18.62,1.04,40.49-.82,50.48-15.08,2.38-3.4,6.86-4.44,10.64-2.78,11.52,5.08,25.41,4.52,36.7-1.11,5.11-2.55,11.23.67,12.32,6.33,3.87,20.16,21.55,35.56,42.02,43.55,25.51,9.96,53.87,7.69,81.11,5.26,32.99-2.93,65.98-5.87,98.97-8.8,54.34-4.83,110.7-10.29,157.79-38.11,47.1-27.82,82.04-84.88,66.89-137.85-4.73-16.55-14.03-32.13-14.26-49.36-.19-13.9,5.57-27.06,9.16-40.48,16.24-60.77-15.68-128.63-68.26-162.35-49.04-31.45-111.7-31.76-167.55-14.73-5.2,1.58-10.46-2-11.15-7.45-2.16-17.25-18.58-34.7-35.66-37.5-14.61-2.39-28.98,3.38-42.97,9.75-6.74,3.06-13.92-3.22-11.95-10.42,4.53-16.57,7.22-34.84,3.78-50.37-4.79-21.58-27.15-40.7-47.78-33.33-18.59,6.64-26.61,30.24-44.69,38.18-14.35,6.3-30.9,1.08-46.49,2.39-24.48,2.05-52.84,12.69-63.83,34.9-7.47,15.11-31.26,22.05-50.62,26.14-12.58,2.66-24.95,15.2-27.35,27.96-2.03,10.77-1.91,17.95-3.64,28.34-1.06,6.35-8.31,9.43-13.55,5.77-71.71-50.05-173.64-56.34-247.01-8.71-21.31,13.83-41.14,32.82-47.56,57.58-4.48,17.25-2,35.44-1.24,53.26,2.05,47.81.56,64.63-19.13,108.13-.41.9,2.12-5.99,1.47-3.93Z"/>
  </g>
  <g id="Layer_2" data-name="Layer 2">
    <g>
      <path class="cls-4" d="M723.42,534.9c.93,4.95,1.86,9.9,2.79,14.85"/>
      <path class="cls-1" d="M719.68,537.98c.93,4.95,1.86,9.9,2.79,14.85.43,2.28,8.02-3.36,7.5-6.14-.93-4.95-1.86-9.9-2.79-14.85-.43-2.28-8.02,3.36-7.5,6.14h0Z"/>
    </g>
  </g>
  <g id="Layer_3" data-name="Layer 3">
    <path class="cls-2" d="M718.3,483.26c-13.54,1.39-27.51,5.86-36.47,16.1-8.97,10.24-10.99,27.28-1.66,37.18,7.81,8.28,20.4,9.33,31.78,9.85,6.71.31,13.74.55,19.78-2.39,11.38-5.55,14.87-19.78,17.09-32.25,1.41-7.92,2.81-16.12.85-23.91-1.96-7.8-6.11-7.16-31.36-4.57Z"/>
    <path class="cls-2" d="M794.06,503.63c-10.4-3.11-21.07-6.25-31.9-5.58s-22.05,5.97-26.76,15.75c-5.3,10.99-1.17,24.19,4.76,34.85,13.73,24.69,37.14,43.81,64.06,52.35,8.12,2.57,16.96,4.2,25.12,1.74,10.69-3.22,18.23-12.86,23.14-22.88,9.02-18.41,11.4-40.37,4.66-59.72-6.74-19.36-23.09-35.55-63.08-16.51Z"/>
    <path class="cls-2" d="M853.97,435.39c-8.92-5.09-21.11.84-25.5,10.13s-2.66,20.37,1.08,29.94c8.22,20.99,25.43,37.57,45.07,48.63,19.64,11.07,41.69,17.1,63.74,21.75,10.54,2.22,21.72,4.12,31.91.62,12.74-4.37,21.4-16.39,26.46-28.87,13.02-32.13,6.05-71.44-17.24-97.13"/>
    <path class="cls-2" d="M539.49,565.65c-2.86,21.09-5.71,42.18-8.57,63.27-1.41,10.42-2.49,22.15,4.05,30.38,4.77,6,12.52,8.65,19.89,10.76,12.15,3.48,24.48,6.34,36.92,8.54,10.18,1.8,20.67,3.17,30.82,1.21,12.89-2.49,24.31-10.24,33.35-19.76,9.05-9.52,16-20.8,22.81-32.03"/>
    <path class="cls-2" d="M541.87,598.64c-6.35,13.76-10.82,28.75-10.07,43.88.75,15.14,7.3,30.46,19.56,39.38,14.65,10.67,35.01,10.57,52.01,4.29,17-6.28,31.41-17.89,45.48-29.31"/>
    <path class="cls-2" d="M487.9,465.25c-23.91,32.48-37.25,72.61-37.56,112.95-.12,15.62,1.91,31.95,10.63,44.91,8.37,12.44,21.93,20.33,35.51,26.68,12.23,5.72,25.12,10.59,38.59,11.51,14.85,1.01,29.65-2.86,43.49-8.32,21.93-8.65,42.88-22.05,55.4-42.04,10.27-16.4,14.15-36.08,14.89-55.41s-1.43-38.64-2.32-57.97c-.89-19.29-.5-38.69-3.22-57.81s-8.84-38.27-21.19-53.12c-12.35-14.84-31.74-24.71-50.88-22.16-12.73,1.7-24.2,8.54-34.42,16.32-42.04,32-68.89,83.14-71.35,135.91"/>
    <path class="cls-2" d="M638.62,210.65c7.62-7.22,20.89-4.99,28.36,2.38s10.25,18.26,11.3,28.7c3.8,37.89-10.9,74.83-19.12,112.02-4.45,20.12-7.05,40.74-13.79,60.21-11.24,32.45-34.17,60.72-63.6,78.41"/>
    <path class="cls-2" d="M522.55,257.95c2.14-4.09-1.51-.93-1.51-.93,6.66-11.12,39.51-14.38,60.14-15.73,3.12-.2,6.44-.36,9.16,1.17,2.95,1.67,4.59,5.08,4.97,8.45s-.3,6.76-.98,10.09c-5.3,25.97-10.61,51.95-15.91,77.92-2.1,10.31-4.28,20.81-9.5,29.95s-14.08,16.84-24.54,17.89c-5.01.5-11.07-.1-14.05,3.96-1.58-5.68-5.17-10.54-8.17-15.61s-5.52-10.88-4.59-16.71c.96-6.04,5.54-11.89,3.57-17.68-.95,1.96,1.74,4.21,3.76,3.39s2.76-3.47,2.14-5.55"/>
    <path class="cls-2" d="M432.77,328.06c-.19,1.29.87,2.09.68,3.38,6.98,16.11,36,17.1,56.24,20.5,10.01,1.68,20.02,3.37,30.03,5.05,3.58.6,7.42,1.17,10.7-.37,3.01-1.41,4.99-4.34,6.72-7.19,2.75-4.52,5.34-9.39,5.64-14.68.46-8.19-4.87-15.89-11.81-20.26s-15.27-5.92-23.44-6.71c-14.69-1.43-29.63-.67-44,2.7-6.33,1.49-13.03,3.81-16.69,9.19-4.33,6.34-2.53,16.04,3.78,20.41"/>
    <path class="cls-2" d="M418.57,490.55c-32.32-40.44-88.37-60.32-138.95-49.28-7.44,1.62-15.13,4.09-20.28,9.7-5.76,6.28-7.27,15.38-7.13,23.89.47,29.37,17.24,56.03,36.61,78.11,12.88,14.68,27.41,28.3,44.78,37.22,17.37,8.92,37.92,12.78,56.72,7.5,20.99-5.9,37.71-22.6,47.88-41.88,10.28-19.49,14.62-42.83,8.16-63.89-6.46-21.06-25.01-38.9-46.94-41.02"/>
    <path class="cls-2" d="M177.4,470.17c-21.23,15.2-32.98,42.65-29.31,68.5s22.58,48.95,47.21,57.65c24.84,8.77,52.2,3.34,77.86-2.6,14.02-3.24,29.67-7.87,36.27-20.65,5.88-11.38,2.37-25.19-1.84-37.28-6.33-18.18-14.01-35.9-22.94-52.95-5.95-11.35-13.33-23.19-25.29-27.8-11.44-4.4-24.23-1.1-36.02,2.23-28.41,8.02-56.82,16.04-85.22,24.07"/>
    <path class="cls-2" d="M888.35,444.99c2.25-11.78-6.34-23.9-17.62-27.94s-24.2-1.13-34.33,5.28-17.88,15.94-24.69,25.81c-9.78,14.15-18.2,29.86-20,46.97-1.79,17.1,4.2,35.83,18.37,45.58,13.4,9.22,31.69,8.84,46.76,2.72,15.08-6.12,27.54-17.22,39.11-28.66,12.48-12.33,24.82-26.28,28.1-43.51,3.6-18.86-4.72-38.58-18.01-52.44-12.68-13.23-30.33-22.13-48.65-22.34s-36.96,8.98-46.28,24.76"/>
    <path class="cls-2" d="M720.85,299.16c6.47.71,12.94,1.42,19.4,2.14,7.81.86,16.23,1.97,21.83,6.85,5.72,5,6.99,12.72,6.72,19.82-.54,14.2-6.09,28.22-15.68,39.64"/>
    <path class="cls-2" d="M242.98,331.74l-5.77-.1c70-10.69,144.53,6.18,200.9,49.04,11.39,8.66,22.17,18.48,29.75,30.62s11.73,26.88,9.13,40.95c-3.2,17.33-16.42,31.73-32.26,39.45s-34.02,9.46-51.61,8.38"/>
    <path class="cls-2" d="M424.68,378.17c2.43-8.34,4.9-16.78,9.24-24.31s10.79-14.19,19.01-17.02c6.06-2.08,12.69-1.97,18.98-.79,7.58,1.42,15.01,4.47,20.63,9.74,11.93,11.19,13.24,30.34,7.52,45.66-5.72,15.32-17.12,27.73-28.25,39.71"/>
    <path class="cls-2" d="M442.86,352.44c-8.02-7.04-14.03-16.83-14.77-27.47s4.53-21.93,14.07-26.7c-.49.26-.98.52-1.47.78,1.78-.02,3.52-.88,4.63-2.27"/>
  </g>
  <g id="Layer_4" data-name="Layer 4">
    <g>
      <path d="M109.91,533.36c-20.36,43.56-38.48,80.62-58.84,124.18-5.01,10.72-10.07,21.6-11.68,33.11s.62,23.95,8.89,32.93c13.41,14.57,37.59,15.96,58.77,15.27,80.08-2.59,159.6-18.16,233.48-45.71,32.9-12.27,65.95-27.82,86.71-53.59,20.76-25.77,25.41-64.15,2.02-88.08-18.28-18.7-48.07-24.27-75.79-26.99s-57.01-4.07-80.48-17.45c-8.88-5.07-17.33-14.07-13.86-22.93,2.86-7.3,13-10.64,21.59-9.33s15.92,6.06,22.86,10.73c17.07,11.47,34.32,23.42,54.58,29.58,20.26,6.16,44.54,5.51,60.98-6.68,18.61-13.8,22.25-38.24,18.45-59.5-8.45-47.16-47.88-88.03-97.59-106.26-49.71-18.24-108-14.71-156.56,5.82-15.4,6.51-30.16,14.81-41.28,26.29-11.13,11.48-18.36,26.46-17.24,41.57,1.15,15.55,10.82,30.03,10.66,45.61-.13,12.64-6.69,25.76-1.39,37.49,7.24,16.02,30.72,18.92,49.95,21.45,26.64,3.5,52.61,10.94,76.52,21.92,8.91,4.09,18.03,9.09,20.82,18.37,1.3,4.32.29,9.03-3.12,12.33-6.31,6.12-16.2,3.95-24.26,1.24-23.82-7.99-46.35-19-66.69-32.6-9.65-6.46-18.91-13.54-29.68-18.4-10.77-4.86-23.57-7.33-35.02-3.91-11.45,3.42-21.57,34.11-12.79,13.51Z"/>
      <path class="cls-1" d="M106.51,534.96c-16.53,35.34-33.52,70.47-50.18,105.75-12.44,26.35-38.3,70.81-4.24,92.53,12.57,8.02,28.34,9.43,42.89,9.51,18.51.1,37.13-1.36,55.55-3.1,38.79-3.66,77.29-10.36,115.03-20.05,35.71-9.17,71.78-20.37,105.11-36.3,28.34-13.55,57.18-33.14,70.64-62.62,12.14-26.59,9.58-59.21-14.56-78.13-26.26-20.6-62.57-20.68-94.17-24.11-17.57-1.9-35.67-4.68-51.67-12.61-7.31-3.62-16.5-9.25-18.49-17.84-1.05-4.53.59-7.4,4.89-8.74s8.64-1.21,12.88-.22c9,2.1,16.6,7.83,24.13,12.89,7.4,4.97,14.83,9.91,22.57,14.34,14.88,8.51,31.04,15.14,48.3,16.24,15.17.97,30.79-2.18,43.26-11.2,11.43-8.27,19.38-20.53,22.51-34.27,6.44-28.33-5.16-58.82-21.64-81.63-39.97-55.33-111.85-75.26-177.21-66.09-33.28,4.67-69.78,16.17-95.44,38.72-12,10.54-22.39,24.51-24.99,40.62-2.82,17.48,6.79,32.23,9.53,48.94s-8.93,34.85,1.86,49.53c7.9,10.74,23.22,13.78,35.54,15.77,17.74,2.86,35.28,5.13,52.6,10.16,8.98,2.6,17.82,5.68,26.47,9.22,7.76,3.18,16.12,6.4,22.68,11.77,4.7,3.84,13.75,17.39,3.09,19.42-8.12,1.55-17.32-2.68-24.75-5.43-17.58-6.51-34.5-14.75-50.42-24.66-14.82-9.23-28.53-21.21-45.49-26.38-13.38-4.08-28.47-4.09-38.39,6.78-3.22,3.53-5.86,7.53-8.16,11.71-1.14,2.07-3.11,4.91-3.36,7.35-.07.67-.09,1.11.62,1.34h.03c1.73.55,4.37-2.46,5.24-3.45,2.13-2.44,3.28-6.03,4.53-8.94.79-1.84-.11-2.35-1.8-1.8-1.95.64-4.21,3.15-5,5-.68,1.58-1.38,3.15-2.08,4.72-.49,1.08-1.37,2.03.02.45l5.24-3.46h-.03c.21.44.42.88.62,1.33.11-1.02,2.26-4.86,3.33-6.67,2.1-3.54,4.18-7.13,8.33-8.24,17.93-4.78,36.06,5.07,50.42,14.73,14.64,9.86,29.2,19.37,45.15,27.04,7.65,3.68,15.45,7.03,23.39,10.03,7.24,2.73,15.06,6.12,22.91,6.29,12.73.28,26.37-12.66,20.39-25.73-2.9-6.34-8.69-10.42-14.69-13.58-7.18-3.79-14.81-6.87-22.39-9.74-17.02-6.42-34.7-11.08-52.67-13.93-14.28-2.27-29.73-2.78-42.96-9.2-5.42-2.62-10.47-6.54-13.24-11.99-4.33-8.52-1.7-18.19-.15-27.05,1.44-8.27,1.5-16.04-.62-24.21-2.12-8.19-5.56-15.99-7.49-24.24-9.04-38.56,29.2-61.28,59.76-72.8,62.7-23.63,139.21-19.06,193.01,23.27,22.77,17.91,41.26,42.28,48.93,70.49,3.71,13.65,5.01,28.3,1.2,42.08-4.4,15.93-15.93,25.74-31.95,29.15-35.01,7.46-66.18-13.21-93.82-31.72-12.07-8.08-26.57-15.74-40.69-7.68-5.05,2.88-10.04,7.79-11.43,13.63-1.68,7.05,2.67,13.46,7.76,17.91,11.98,10.49,29.71,14.85,44.98,17.54,16.73,2.94,33.72,3.71,50.56,5.73,29.28,3.51,65.24,11.81,78.2,41.84,12.29,28.46-.72,60.55-22.66,80.12-25.59,22.83-59.84,35.03-91.82,45.83-35.29,11.92-71.51,21.09-108.2,27.51-36.54,6.39-74.04,10.78-111.19,10.86-14.58.03-30.84-1.01-43.47-9.08-14.14-9.04-18.65-25.66-15.46-41.54,1.9-9.46,5.93-18.29,9.98-26.99,4.06-8.73,8.17-17.43,12.29-26.13,7.91-16.72,15.9-33.4,23.86-50.09s15.73-33.07,23.49-49.65c.86-1.84-.16-2.34-1.8-1.8-2,.65-4.13,3.14-5,5Z"/>
    </g>
    <g>
      <path d="M633.3,623.12c-15.31,19.06-34.16,34.48-54.97,44.96-10.94,5.51-24.8,9.25-34.06.66-6.9-6.4-8.61-17.4-9.46-27.44-3.15-37.12-.95-74.81,6.48-111.14,9.23-45.09,26.58-89.71,22.03-135.7-1.85-18.71-7.34-37.17-5.92-55.93,1.66-21.91,12.52-41.46,24.1-59.12,13.2-20.12,27.75-39.1,43.49-56.72,9.37-10.49,22.61-21.24,34.61-15.04,8.08,4.17,11.99,14.72,13.31,24.64,2.89,21.83-3.25,44.05-12.27,63.63-9.02,19.58-20.9,37.29-30.74,56.36-26.5,51.4-37.52,112.78-30.82,171.78,22.07-53.45,41.73-108.17,58.87-163.88,5.94-19.31,12.5-40.15,27.54-51.52,15.68-11.85,36.19-10.13,54.95-7.94,8.28.96,18.38,3.56,20.58,12.63,1.5,6.2-1.61,12.5-4.56,17.99-50.21,93.24-60.52,213.81-123.15,291.79Z"/>
      <path class="cls-1" d="M631.13,622.83c-9.23,11.39-19.82,21.64-31.8,30.12-10.63,7.53-24.2,16.87-37.75,17.11-15.65.28-21.01-14.07-22.58-27.28-1.89-15.82-2.13-31.99-1.71-47.91.87-33.08,6.66-65.24,14.74-97.25s16.23-61.46,15.76-93.23c-.24-16.06-3.85-31.61-5.83-47.48s-.73-31.41,5.18-46.46c5.44-13.83,13.53-26.43,21.86-38.67,9.07-13.33,18.82-26.18,29.21-38.51,8.15-9.67,20.65-27.55,35.53-23.03,13.68,4.15,15.97,23.19,16.13,35.12.42,33.13-17.22,62.16-33.13,89.9-14.69,25.63-26.46,52.31-33.76,81s-10.44,58.42-9.36,87.97c.28,7.65.87,15.27,1.71,22.87.32,2.89,6.75-3.7,7.15-4.67,18.54-44.97,35.37-90.65,50.39-136.92,3.56-10.97,6.94-21.99,10.4-33,3.04-9.68,6.29-19.47,11.34-28.32,5.2-9.11,12.33-15.8,22.52-18.88s20.52-2.75,30.75-1.87c8.13.7,18.54.8,25.14,6.32,9.64,8.06,1.57,20.08-2.87,28.66-9.05,17.52-16.68,35.73-23.56,54.19-13.96,37.47-24.84,75.98-37.73,113.81-13.96,40.98-30.48,82.24-57.72,116.38-.74.93-2.55,3.23-.9,4.04,1.47.72,4.57-2.62,5.24-3.46,52.69-66.05,68.15-152.67,96.54-230.23,7.32-19.99,15.48-39.71,25.3-58.62,4.29-8.26,11.39-18.9,5.85-28.25-4.23-7.14-13.71-8.65-21.21-9.52-20.33-2.34-41.85-2.85-58.44,11.06-15.64,13.11-22.48,32.88-28.34,51.76-17.44,56.21-37.06,111.64-59.49,166.05l7.15-4.67c-3.6-32.55-2.03-65.53,4.76-97.57s19.63-62.98,36.29-91.89c16.11-27.97,33.24-57.19,33.49-90.47.09-12.37-1.85-30.38-14.23-36.95-12.24-6.5-25.71,3.82-34.23,11.93-11.73,11.16-21.85,24.53-31.56,37.44-9.71,12.91-19.1,26.21-27.15,40.22-7.49,13.04-13.81,27.08-15.94,42.09-2.41,17.01,1.26,33.78,3.85,50.54,5.38,34.88-1.48,68.68-9.99,102.46-8.47,33.61-16.04,66.9-17.89,101.64-.94,17.65-.71,35.37.76,52.98,1.01,12.16,3.13,27.9,16.27,32.84,12.42,4.66,26.58-2.87,37.12-8.88,12.89-7.34,24.74-16.41,35.4-26.72,5.59-5.41,10.81-11.2,15.71-17.24.75-.92,2.55-3.23.9-4.04-1.48-.72-4.56,2.62-5.24,3.46Z"/>
    </g>
    <g>
      <path d="M353.71,702.36c-5.23-.07-10.58-.16-15.51-1.95-4.93-1.79-9.48-5.61-10.77-10.81-1.18-4.73.45-9.69,2.29-14.19,10.69-26.28,28.64-48.62,44.23-72.19,15.59-23.57,29.35-50.01,29.73-78.48.2-14.97-3.34-29.73-4.21-44.68-.87-14.95,1.41-31.12,11.31-42.13,8.37-9.31,20.86-13.47,33.03-15.62,10.89-1.92,23.43-2.03,31.4,5.81,9.51,9.35,8,25.07,5.77,38.38-9.98,59.62-19.96,119.23-29.94,178.85-2.08,12.4-4.49,25.53-12.73,34.86-7.89,8.92-19.77,12.78-31.24,15.39-18.73,4.27-37.96,6.21-53.35,6.78Z"/>
      <path class="cls-1" d="M356.79,698.62c-10.21-.16-26.22-1.97-26.01-15.66.09-5.93,3.41-11.98,5.9-17.23,2.62-5.52,5.54-10.9,8.67-16.15,11.76-19.7,26.09-37.71,38.01-57.31,11.09-18.23,20.62-38.17,23.28-59.57,2.89-23.25-5.57-45.96-3.26-69.12,1.03-10.37,4.16-21.79,12.92-28.27,8.28-6.13,19.33-8.76,29.41-9.94,9.46-1.1,20.17-.21,26.92,7.32,6.75,7.52,6.82,18.71,5.78,28.17-1.31,11.91-3.78,23.76-5.76,35.57-2.08,12.45-4.17,24.89-6.25,37.34-4.28,25.55-8.56,51.1-12.83,76.65-2.3,13.74-4.49,27.51-6.92,41.24-2,11.31-4.51,24.69-14.6,31.68-10.16,7.04-23.83,9.13-35.74,11.18-13.07,2.26-26.29,3.58-39.55,4.11-2.08.08-4,1.92-5.24,3.46-.31.39-2.78,4.11-.9,4.04,12.43-.5,24.84-1.64,37.13-3.59s24.34-4.06,35.34-9.18c9.32-4.34,17.32-11.17,22.51-20.11,5.71-9.84,7.58-21.2,9.43-32.26,9.56-56.99,19.08-113.99,28.63-170.98,3.08-18.37,7.42-45.66-16.49-51.53-10.16-2.5-21.77-.32-31.6,2.63s-19.85,8.4-26.99,16.56c-15.7,17.94-13.78,42.12-10.87,64.11,1.81,13.68,3.18,27.17.76,40.88-2.17,12.26-6.56,23.97-12.07,35.1-12.92,26.05-31.98,48.33-46.83,73.22-3.49,5.85-6.79,11.83-9.71,17.98-2.71,5.72-5.92,11.99-6.48,18.37-1.38,15.6,15.35,18.64,27.25,18.82,2.04.03,4.06-1.98,5.24-3.46.35-.44,2.78-4.01.9-4.04Z"/>
    </g>
    <g>
      <path d="M521.49,661.03c3.66,7.35-.7,16.88-7.35,21.24-6.66,4.36-14.84,4.89-22.64,5.3-17.85.94-35.7,1.88-53.54,2.82-3.17.17-6.74.17-8.98-2.21-3.84-4.09-.63-10.93,2.51-15.65,41.32-62.13,54.65-141.2,52.6-217.28-.24-8.93-.7-17.98-3.43-26.43-2.73-8.44-8.03-16.32-15.67-20.02-6.95-3.36-15.73-3.36-20.84-9.4-4.96-5.86-4.21-15.07-1.39-22.36,8.85-22.9,36.66-35.01,58.06-25.3,11.83,5.37,23.2,16.5,35.62,12.91,2.74-.79,5.35-2.3,8.19-2.36,4.21-.09,7.99,3.16,9.93,7.13,1.94,3.97,2.36,8.57,2.54,13.04.63,15.33-1.12,30.66-3.37,45.82-12.19,81.87-39.55,162.9-31.74,245.37.63-2.79,1.26-5.58,1.89-8.38-.15,1.46-.3,2.91-2.38-4.26Z"/>
      <path class="cls-1" d="M517.74,664.1c2.56,5.93,1.25,13.4-4.94,16.41-7.31,3.55-16.26,3.2-24.18,3.62-16.25.86-32.7,2.54-48.97,2.56-9.01.01-10.11-6.71-6.06-13.63,3.51-6,7.49-11.71,10.92-17.77,6.86-12.13,12.81-24.74,17.87-37.72,20.41-52.39,27.01-109.46,25.46-165.4-.37-13.3-1.32-27.66-9.63-38.68-3.34-4.43-7.64-7.63-12.82-9.56-6.04-2.25-13.27-2.82-17.69-8.06-8.02-9.51-1.27-25.22,6.38-32.76s19.41-11.59,30.28-10.91c12.84.8,21.97,9.19,33.25,14.2,4.78,2.12,9.79,3.33,15.01,2.31,3.46-.68,6.71-3.06,10.34-2.57,4.05.55,7.09,4.33,8.52,7.88,2.59,6.42,2.11,14.32,1.98,21.11-.16,8.73-.98,17.43-2.09,26.08-2.02,15.73-4.81,31.37-7.79,46.94-13.17,68.76-31.78,137.95-25.33,208.59.25,2.78,7.1-3.96,7.44-5.48.63-2.79,1.26-5.58,1.89-8.38l-7.39,4.82c-.03.24-.28,1.13.07.33l4.09-4.48-.11.06,2.85-.65c-1.08-.7-1.55-4-1.84-4.99-.73-2.46-8.27,3.54-7.5,6.14.4,1.33.9,5.04,2.27,5.92.93.6,2.05-.2,2.85-.65,2.27-1.28,4.42-3.83,4.71-6.49.39-3.63-6.9,2.64-7.39,4.82-.63,2.79-1.26,5.58-1.89,8.38,2.48-1.83,4.96-3.65,7.44-5.48-6.36-69.55,11.79-137.69,24.86-205.39,3.31-17.13,6.42-34.34,8.51-51.67.98-8.15,1.7-16.34,1.84-24.55.13-7.39.62-16.04-2.75-22.86-3.08-6.23-8.74-8.73-15.29-6.61-3.55,1.15-6.62,2.39-10.45,1.98s-7.21-1.81-10.51-3.47c-11.31-5.7-20.7-13.39-33.97-13.4-22.58-.02-46.18,18.06-50.58,40.57-1.13,5.79-.91,12.3,2.78,17.17s10.49,6.37,16.26,8.14c15.06,4.63,21.24,18.89,23.01,33.53,1.89,15.65,1.32,31.9.77,47.62s-1.89,32.08-4.12,47.99c-4.29,30.69-11.86,61.09-24,89.65-5.96,14.02-12.98,27.59-21.22,40.41-3.14,4.9-7.54,10.55-7.41,16.7.17,7.58,7.57,7.9,13.39,7.61,17.75-.89,35.5-1.75,53.24-2.8,13.51-.8,26.58-4.44,33.56-17.1,2.77-5.03,3.91-10.76,1.57-16.17-1.11-2.58-8.5,3.8-7.5,6.14Z"/>
    </g>
    <g>
      <path d="M541.8,250.06c-9.64-.28-18.49,5.46-25.33,12.26s-12.41,14.86-19.72,21.16c-9.62,8.31-22.11,13.23-34.82,13.73-8.34.32-17.75-.87-24.06,4.59-7.39,6.4-6.03,18.61-.82,26.89,2.38,3.78,5.74,7.36,10.14,8.19,5.91,1.12,11.37-2.94,16.76-5.63,11.41-5.69,25.61-5.37,36.75.84,6.4,3.57,11.72,8.88,18.2,12.3s15.09,4.57,20.71-.14c5.05-4.24,5.92-11.51,7.26-17.96,2.43-11.73,7.56-22.89,14.9-32.36,8.52-11,20.17-20.15,24.68-33.31,1.16-3.38,1.73-7.35-.23-10.33-2.37-3.61-7.32-4.28-11.63-4.37-15.34-.32-30.73,2.25-32.77,4.15Z"/>
      <path class="cls-1" d="M544.87,246.31c-15.58.07-27.33,11.6-36.91,22.61-5.64,6.49-11.06,13.07-18.59,17.46s-16.33,6.77-25.1,7.09c-6.64.24-13.56-.44-19.88,2.06-5.9,2.33-11.08,7.19-13.66,13.01-4.57,10.34.38,27.94,11.96,31.7,7.31,2.38,14.15-3.02,20.37-5.95,7.49-3.52,16.14-4.19,24.18-2.4,15.12,3.37,25.45,20.55,41.77,19.13,6.32-.55,11.74-4.43,15.4-9.47,4.18-5.75,4.96-12.63,6.51-19.37,1.97-8.56,5.41-16.75,10.24-24.09,4.32-6.56,9.91-12.11,15.07-17.99,6.37-7.25,25.5-31.56,7.95-37.1-7.69-2.43-17.56-.85-25.44.04-5.83.66-12.39,1.22-17.24,4.83-3.34,2.49-4.91,8.43.57,4.33-2.04,1.53-.72.46.19.28,1.04-.2,2.06-.53,3.1-.75,2.82-.59,5.68-.99,8.55-1.31,6.9-.78,14.61-1.58,21.54-.49,18.06,2.83,1.51,23.9-4.61,30.75-8.6,9.63-16.82,18.99-22.15,30.92-2.45,5.47-4.3,11.2-5.55,17.06-.6,2.81-1.02,5.68-1.83,8.45-.41,1.4-.84,3.63-1.9,4.69-1.83,1.83-5.16,1.89-7.53,1.75-13.25-.8-21.9-13.6-33.94-17.86-11.2-3.96-23.46-2.53-33.89,2.89-6.68,3.47-13.19,7.34-19.73,1.24-4.29-4.01-6.96-9.92-7.67-15.7-.34-2.74-.48-6.28.86-8.8,1.63-3.06,5.26-3.6,8.46-4,6.13-.75,12.34-.07,18.48-.87,14.27-1.85,27.19-9.12,37.27-19.22,10.76-10.78,19.81-27.38,36.99-27.46,2.06,0,4.04-1.96,5.24-3.46.34-.43,2.78-4.04.9-4.04Z"/>
    </g>
    <g id="Layer_9" data-name="Layer 9">
      <g>
        <path d="M675.58,533.36c-20.36,43.56-38.48,80.62-58.84,124.18-5.01,10.72-10.07,21.6-11.68,33.11s.62,23.95,8.89,32.93c13.41,14.57,37.59,15.96,58.77,15.27,80.08-2.59,159.6-18.16,233.48-45.71,32.9-12.27,65.95-27.82,86.71-53.59,20.76-25.77,25.41-64.15,2.02-88.08-18.28-18.7-48.07-24.27-75.79-26.99s-57.01-4.07-80.48-17.45c-8.88-5.07-17.33-14.07-13.86-22.93,2.86-7.3,13-10.64,21.59-9.33s15.92,6.06,22.86,10.73c17.07,11.47,34.32,23.42,54.58,29.58s44.54,5.51,60.98-6.68c18.61-13.8,22.25-38.24,18.45-59.5-8.45-47.16-47.88-88.03-97.59-106.26-49.71-18.24-108-14.71-156.56,5.82-15.4,6.51-30.16,14.81-41.28,26.29-11.13,11.48-18.36,26.46-17.24,41.57,1.15,15.55,10.82,30.03,10.66,45.61-.13,12.64-6.69,25.76-1.39,37.49,7.24,16.02,30.72,18.92,49.95,21.45,26.64,3.5,52.61,10.94,76.52,21.92,8.91,4.09,18.03,9.09,20.82,18.37,1.3,4.32.29,9.03-3.12,12.33-6.31,6.12-16.2,3.95-24.26,1.24-23.82-7.99-46.35-19-66.69-32.6-9.65-6.46-18.91-13.54-29.68-18.4-10.77-4.86-23.57-7.33-35.02-3.91-11.45,3.42-21.57,34.11-12.79,13.51Z"/>
        <path class="cls-1" d="M672.18,534.96c-16.53,35.34-33.52,70.47-50.18,105.75-12.44,26.35-38.3,70.81-4.24,92.53,12.57,8.02,28.34,9.43,42.89,9.51,18.51.1,37.13-1.36,55.55-3.1,38.79-3.66,77.29-10.36,115.03-20.05,35.71-9.17,71.78-20.37,105.11-36.3,28.34-13.55,57.18-33.14,70.64-62.62,12.14-26.59,9.58-59.21-14.56-78.13-26.26-20.6-62.57-20.68-94.17-24.11-17.57-1.9-35.67-4.68-51.67-12.61-7.31-3.62-16.5-9.25-18.49-17.84-1.05-4.53.59-7.4,4.89-8.74s8.64-1.21,12.88-.22c9,2.1,16.6,7.83,24.13,12.89s14.83,9.91,22.57,14.34c14.88,8.51,31.04,15.14,48.3,16.24,15.17.97,30.79-2.18,43.26-11.2,11.43-8.27,19.38-20.53,22.51-34.27,6.44-28.33-5.16-58.82-21.64-81.63-39.97-55.33-111.85-75.26-177.21-66.09-33.28,4.67-69.78,16.17-95.44,38.72-12,10.54-22.39,24.51-24.99,40.62-2.82,17.48,6.79,32.23,9.53,48.94,2.66,16.23-8.93,34.85,1.86,49.53,7.9,10.74,23.22,13.78,35.54,15.77,17.74,2.86,35.28,5.13,52.6,10.16,8.98,2.6,17.82,5.68,26.47,9.22,7.76,3.18,16.12,6.4,22.68,11.77,4.7,3.84,13.75,17.39,3.09,19.42-8.12,1.55-17.32-2.68-24.75-5.43-17.58-6.51-34.5-14.75-50.42-24.66-14.82-9.23-28.53-21.21-45.49-26.38-13.38-4.08-28.47-4.09-38.39,6.78-3.22,3.53-5.86,7.53-8.16,11.71-1.14,2.07-3.11,4.91-3.36,7.35-.07.67-.09,1.11.62,1.34h.03c1.73.55,4.37-2.46,5.24-3.45,2.13-2.44,3.28-6.03,4.53-8.94.79-1.84-.11-2.35-1.8-1.8-1.95.64-4.21,3.15-5,5-.68,1.58-1.38,3.15-2.08,4.72-.49,1.08-1.37,2.03.02.45l5.24-3.46h-.03c.21.44.42.88.62,1.33.11-1.02,2.26-4.86,3.33-6.67,2.1-3.54,4.18-7.13,8.33-8.24,17.93-4.78,36.06,5.07,50.42,14.73,14.64,9.86,29.2,19.37,45.15,27.04,7.65,3.68,15.45,7.03,23.39,10.03,7.24,2.73,15.06,6.12,22.91,6.29,12.73.28,26.37-12.66,20.39-25.73-2.9-6.34-8.69-10.42-14.69-13.58-7.18-3.79-14.81-6.87-22.39-9.74-17.02-6.42-34.7-11.08-52.67-13.93-14.28-2.27-29.73-2.78-42.96-9.2-5.42-2.62-10.47-6.54-13.24-11.99-4.33-8.52-1.7-18.19-.15-27.05,1.44-8.27,1.5-16.04-.62-24.21s-5.56-15.99-7.49-24.24c-9.04-38.56,29.2-61.28,59.76-72.8,62.7-23.63,139.21-19.06,193.01,23.27,22.77,17.91,41.26,42.28,48.93,70.49,3.71,13.65,5.01,28.3,1.2,42.08-4.4,15.93-15.93,25.74-31.95,29.15-35.01,7.46-66.18-13.21-93.82-31.72-12.07-8.08-26.57-15.74-40.69-7.68-5.05,2.88-10.04,7.79-11.43,13.63-1.68,7.05,2.67,13.46,7.76,17.91,11.98,10.49,29.71,14.85,44.98,17.54,16.73,2.94,33.72,3.71,50.56,5.73,29.28,3.51,65.24,11.81,78.2,41.84,12.29,28.46-.72,60.55-22.66,80.12-25.59,22.83-59.84,35.03-91.82,45.83-35.29,11.92-71.51,21.09-108.2,27.51s-74.04,10.78-111.19,10.86c-14.58.03-30.84-1.01-43.47-9.08-14.14-9.04-18.65-25.66-15.46-41.54,1.9-9.46,5.93-18.29,9.98-26.99s8.17-17.43,12.29-26.13c7.91-16.72,15.9-33.4,23.86-50.09,7.88-16.53,15.73-33.07,23.49-49.65.86-1.84-.16-2.34-1.8-1.8-2,.65-4.13,3.14-5,5Z"/>
      </g>
    </g>
  </g>
  <g id="Layer_12" data-name="Layer 12">
    <path class="cls-2" d="M584.41,1026.05c.45-3.56.89-7.12,1.34-10.68"/>
  </g>
</svg>